<svg width="159px" height="50px" viewBox="0 0 159 50" version="1.1" xmlns="http://www.w3.org/2000/svg" xmlns:xlink="http://www.w3.org/1999/xlink">
    <g id="pages" stroke="none" stroke-width="1" fill="none" fill-rule="evenodd">
        <g id="products" transform="translate(-495.000000, -664.000000)" fill="#231F20">
            <g id="mailru" transform="translate(495.000000, 664.000000)">
                <path d="M16.7141227,6.84231236 C19.3222811,6.90148493 21.8005635,7.99046412 23.6058267,9.87058801 L23.6058267,9.87764579 C23.5807246,9.48595928 23.7183131,9.10124008 23.9862269,8.81398654 C24.2541407,8.52673299 24.6287309,8.36230114 25.0218819,8.35937064 L25.2276408,8.35985739 C25.6430555,8.36823206 26.0379125,8.54189769 26.3244632,8.84226083 C26.611014,9.14262397 26.7655199,9.5448017 26.7536453,9.95941872 L26.6558854,23.5165681 C26.593608,23.8882726 26.7754842,24.2582747 27.1080988,24.4365338 C27.4407134,24.614793 27.8501292,24.5616839 28.126062,24.3044843 C30.3234646,22.0837164 33.0036936,12.8406978 26.9005289,7.42603969 C22.0411912,3.13001089 14.936242,2.51958065 9.4130706,5.92358371 C4.39451809,9.48663305 2.50858574,16.0391494 4.8671033,21.7181719 C7.7584546,28.523335 16.1662896,30.6102484 21.1880013,28.6320005 C23.7309764,27.629917 24.8753274,31.0599995 22.2342267,32.156998 C18.2425285,33.8189843 7.17142008,33.5636872 2.06802657,24.5791295 C-2.28078834,16.7691319 0.448179609,6.92065146 8.1993491,2.45200628 C15.3698974,-1.71497796 24.4608452,-0.477549057 30.2521194,5.4537544 C36.0972323,11.6420915 35.6649923,23.143479 29.8827773,27.5741849 C28.7021076,28.4634854 27.1272025,28.6325531 25.7841255,28.0141793 C24.4410485,27.3958056 23.5474437,26.0901971 23.4585409,24.6163653 L23.4395375,23.6477455 C21.6106775,25.4545767 19.1359132,26.4593093 16.5629362,26.4395854 C11.2308665,26.2591738 6.97332926,21.9434925 6.87410579,16.618437 C7.02847837,11.2662125 11.3519834,6.97076453 16.7140861,6.84231236 L16.7140861,6.84231236 L16.7141227,6.84231236 Z M23.1771217,16.3687375 C23.1652803,14.7048371 22.4814233,13.1160922 21.2804203,11.9622976 C20.0794172,10.808503 18.4628772,10.1872738 16.7968895,10.2392963 L16.6686558,10.2380795 C12.734614,10.207658 10.5285569,13.2801056 10.5016302,16.7875804 C10.3647974,18.4655276 10.9437136,20.1231962 12.09587,21.3525265 C13.2480264,22.5818569 14.8664027,23.2686603 16.5526117,23.2438699 C20.0679169,23.3718084 23.0279456,20.6440123 23.1807786,17.1357238 L23.1771217,16.3687375 Z M118.13668,25.9808295 C118.123157,25.4438308 117.887165,24.9364758 117.484938,24.5796592 C117.082711,24.2228426 116.55027,24.0485189 116.014487,24.0982267 C114.944871,23.9995207 113.994141,24.7766867 113.880104,25.8429594 L113.868158,27.2754459 C113.960226,28.3338768 114.880544,29.1261953 115.942813,29.0615518 C117.001678,29.1676206 117.958692,28.4283527 118.121578,27.3785139 L118.13668,25.9808295 Z M132.207517,7.20274603 C126.200088,7.32455936 121.340216,12.1211673 121.149805,18.1165123 L121.080568,27.0781931 C121.065375,28.174639 121.933003,29.081053 123.03089,29.115702 C123.574139,29.1434832 124.106071,28.9539401 124.508914,28.5890388 C124.911758,28.2241374 125.152276,27.7139828 125.177218,27.1715262 L125.247308,18.0734355 C125.371101,14.3380844 128.406479,11.3553802 132.149739,11.2907843 C132.713665,11.317802 133.264156,11.1135801 133.673551,10.7254785 C134.082946,10.3373769 134.315678,9.79911184 134.317777,9.23550922 C134.32372,8.68161185 134.100802,8.14973851 133.701503,7.76510311 C133.302204,7.38046771 132.761801,7.17705265 132.207517,7.20274603 Z M156.867257,7.39245437 C155.749394,7.36936512 154.819287,8.24497791 154.776879,9.36035897 L154.708008,18.378137 C154.647497,22.1734689 151.542221,25.215275 147.739901,25.20382 C143.937581,25.192365 140.850751,22.1319044 140.813188,18.336277 L140.882912,9.3030449 C140.872686,8.18174357 139.969601,7.27263138 138.846497,7.25303858 C137.723393,7.23344577 136.789041,8.11050347 136.739576,9.23076347 L136.670352,18.2346693 C136.679519,24.3016567 141.580104,29.23019 147.657286,29.2842618 C153.734468,29.3383337 158.722272,24.4977827 158.839764,18.4319222 L158.909853,9.39710812 C158.899397,8.28085328 157.985447,7.38388058 156.867257,7.39245437 Z M96.8241788,2.44811233 C96.6759946,1.39566352 95.7780252,0.610308804 94.713436,0.602078605 C93.6488467,0.593848407 92.738801,1.3652256 92.5743069,2.41525713 L92.5651647,3.5549674 C92.7774178,4.53713914 93.6330028,5.24839542 94.6390308,5.27899294 C95.6450589,5.30959047 96.5424301,4.65164892 96.8141834,3.68419784 L96.8241788,2.44811233 Z M58.3550667,6.65114379 C56.1723324,6.73704162 54.0927659,7.60124569 52.4937418,9.08693072 C51.240015,7.65652163 49.4856999,6.75901388 47.5903903,6.57837561 C45.8649571,6.44680594 44.1504032,6.94549994 42.765783,7.98165757 C42.5578659,7.14597004 41.8239388,6.54645608 40.9622234,6.50840621 C40.4002772,6.52713127 39.8689412,6.76851204 39.4856685,7.17919076 C39.1023957,7.58986948 38.8987506,8.13602462 38.9197494,8.69692737 C38.9093884,10.0610265 38.7941975,26.407582 38.7941975,26.407582 C38.8158355,27.5500181 39.7468115,28.4664323 40.8914024,28.4719835 C41.4498237,28.4981039 41.9946579,28.2951318 42.3994153,27.9101896 C42.8041728,27.5252474 43.0336466,26.9918184 43.0345617,26.4337445 L43.1354908,13.295073 C43.1453643,12.0167625 45.3466675,10.5213643 47.1965473,10.5596953 C48.7224458,10.7331645 49.8476988,12.0650447 49.7615976,13.5957589 L49.6729677,26.5151523 C49.7600408,27.6558374 50.7074038,28.5400786 51.8533172,28.5502276 C53.0088044,28.603696 53.9906773,27.7156554 54.0510855,26.5624882 L54.1516368,13.5054071 C54.1638263,11.9057241 56.6090416,10.5831199 58.2751035,10.6819288 C59.6813086,10.9182949 60.7119306,12.1323574 60.7148336,13.5559067 L60.6141482,26.5945524 C60.6778132,27.7515252 61.6450086,28.6520173 62.8055902,28.6348601 C63.3676203,28.6678852 63.9187671,28.4702471 64.3312826,28.0877553 C64.743798,27.7052636 64.9818652,27.1711284 64.9903035,26.6091547 L65.0908669,13.6267279 C65.1422823,8.8616901 60.444836,6.60246942 58.3550667,6.65114379 L58.3550667,6.65114379 Z M94.6445485,6.91581065 C94.0861763,6.91219846 93.5493307,7.13062208 93.1525646,7.52284652 C92.7557985,7.91507096 92.5317515,8.4488302 92.5299005,9.00625296 L92.3972786,26.8003841 C92.3860612,27.3525412 92.600108,27.8855408 92.9902924,28.2770519 C93.3804768,28.6685631 93.9132914,28.8849646 94.4664476,28.8765892 C95.0422838,28.8926606 95.5999239,28.6743518 96.0113092,28.2717961 C96.4226944,27.8692404 96.6524746,27.3170293 96.647882,26.7419749 L96.7935588,9.06879952 C96.7190069,7.91488022 95.800178,6.99435021 94.6445485,6.91581065 Z M87.2448955,6.86409414 C86.1651291,6.82987423 85.2537556,7.65882144 85.1876722,8.73525843 L85.1816994,9.46196671 C83.2519486,7.77988768 80.7859147,6.83764243 78.2242939,6.80361624 C72.183432,6.83668004 67.2766384,11.6833184 67.1793807,17.7131235 C67.2837301,23.6967842 72.0635837,28.5509583 78.0548597,28.757702 C80.5964718,28.7538632 83.0594889,27.8777982 85.0309152,26.2764046 L85.0324998,26.7972203 C85.0327034,27.3422998 85.2523672,27.8644222 85.6420982,28.2461843 C86.0318293,28.6279464 86.5589156,28.8373051 87.104838,28.8271847 C87.6708365,28.8484999 88.2208905,28.637511 88.6269649,28.2433294 C89.0330394,27.8491477 89.2597096,27.3061606 89.254214,26.740758 L89.3919554,8.8806731 C89.2896922,7.7633806 88.3682951,6.89796378 87.2449321,6.86409414 L87.2448955,6.86409414 Z M78.145184,24.6930275 C74.3172146,24.6612093 71.2396641,21.5379399 71.2708127,17.7165332 C71.3019613,13.8951265 74.4300169,10.822266 78.257998,10.852638 C82.0859792,10.8830101 85.1647134,14.0051165 85.1350136,17.8265347 C85.1202535,19.6624099 84.3755327,21.4172362 83.0646866,22.7049589 C81.7538406,23.9926815 79.984251,24.7078131 78.1452205,24.6930275 L78.145184,24.6930275 Z M109.102877,24.7459608 C107.738928,24.7485608 106.431741,24.2011232 105.477884,23.2278482 C104.524028,22.2545732 104.004366,20.9379699 104.036796,19.5767432 L104.171124,2.66069762 C104.101569,1.54180856 103.17673,0.667343144 102.053795,0.65869339 C100.93086,0.650043636 99.9926143,1.51015807 99.9057718,2.62784242 L99.7755878,19.560559 C99.7375866,24.6989755 103.848037,28.9114279 108.994513,29.0082533 C109.579868,29.0218745 110.145426,28.7963595 110.560297,28.3838995 C110.975169,27.9714395 111.203396,27.407785 111.192159,26.8233828 C111.193156,26.2706819 110.973094,25.740452 110.58083,25.350407 C110.188565,24.960362 109.656557,24.7427783 109.102914,24.7459608 L109.102877,24.7459608 Z M128.261993,36.8242613 C125.708251,36.875939 123.642281,38.9149341 123.561341,41.4635367 L123.532086,45.2742528 C123.526571,45.7402486 123.895952,46.1247937 124.362569,46.1388312 C124.593254,46.1504786 124.819081,46.0698941 124.990097,45.9149031 C125.161114,45.7599121 125.263225,45.5432883 125.273844,45.3129489 L125.303831,41.4434586 C125.356908,39.8566768 126.646587,38.5899183 128.236748,38.5626662 C128.476761,38.5738017 128.710916,38.4865938 128.884973,38.3212443 C129.05903,38.1558948 129.157886,37.9267507 129.158641,37.6868927 C129.16085,37.4517344 129.065996,37.2260372 128.896372,37.0628482 C128.726748,36.8996592 128.497313,36.8133699 128.261993,36.8242613 L128.261993,36.8242613 Z M138.486784,41.5628324 C138.442826,39.0197019 136.411946,36.9561566 133.865619,36.8673381 L133.777367,36.8720838 C131.228436,36.9103107 129.170468,38.9621071 129.128898,41.5066135 C129.172594,44.0514742 131.205495,46.1161906 133.753598,46.2036898 L133.837583,46.1984573 C136.386783,46.1595611 138.444761,44.1076089 138.48682,41.5628324 L138.486784,41.5628324 Z M133.790898,44.4744113 C132.176373,44.4623483 130.872422,43.1551528 130.867122,41.5433627 L130.867488,41.473515 C130.89881,39.864441 132.221814,38.5804042 133.833897,38.5944783 C135.445979,38.6085524 136.746286,39.9154917 136.749413,41.5248664 L136.749047,41.5967828 C136.725156,43.2055848 135.402581,44.4922027 133.790934,44.4744721 L133.790898,44.4744113 Z M147.741424,36.9736916 C147.266171,36.964372 146.871203,37.3371634 146.853906,37.8113774 L146.824175,41.6426584 C146.796936,43.2554866 145.476965,44.547346 143.861142,44.5425876 C142.245319,44.5378291 140.933006,43.2382178 140.915299,41.6252573 L140.944676,37.7857017 C140.940459,37.3090875 140.556474,36.9226835 140.079089,36.9146632 C139.601705,36.9066429 139.204912,37.2799293 139.184633,37.756132 L139.155012,41.5832757 C139.161753,44.1605158 141.244495,46.2525544 143.826074,46.2751885 C146.407653,46.2978226 148.526881,44.2426248 148.578965,41.6659004 L148.609073,37.8264665 C148.604449,37.3522097 148.216547,36.9709687 147.74146,36.9737524 L147.741424,36.9736916 Z M154.037792,37.0262599 C152.949393,37.0238225 151.895661,37.4082109 151.065259,38.1106031 L151.067697,37.8023726 C151.045894,37.3442714 150.664037,36.9860068 150.20468,36.9926746 C149.727219,36.9999426 149.32985,37.360899 149.277667,37.8347411 L149.191731,49.1164855 C149.187099,49.3517081 149.278501,49.578695 149.444928,49.7452725 C149.611355,49.9118501 149.838492,50.0036897 150.07413,49.9996819 C150.318766,50.0061752 150.55552,49.9130273 150.729939,49.7416618 C150.904358,49.5702963 151.001429,49.3354638 150.998826,49.0911749 L151.030031,45.2698721 C151.855544,45.9565638 152.891369,46.3409612 153.965752,46.3593261 C156.51425,46.3099152 158.577817,44.2771627 158.661273,41.7339228 C158.658847,39.1707096 156.604898,37.079347 154.037829,37.0262599 L154.037792,37.0262599 Z M153.953819,44.6293175 C152.484155,44.6181847 151.248071,43.5262454 151.058189,42.0713579 L151.064527,41.2561839 C151.29584,39.701952 152.710118,38.6037537 154.276068,38.7623961 C155.842018,38.9210386 157.006462,40.2804807 156.920286,41.8494161 C156.83411,43.4183515 155.527756,44.6425467 153.953819,44.6293175 L153.953819,44.6293175 Z M121.975486,36.7757086 C121.516448,36.7615902 121.129304,37.1142731 121.101498,37.5718995 L121.099182,37.8801299 C120.278919,37.1655439 119.23107,36.7650379 118.142495,36.7500329 C115.574509,36.7633917 113.487739,38.8225281 113.444536,41.3857794 C113.489458,43.9306962 115.522305,45.9950809 118.070455,46.0834641 C119.150482,46.0811284 120.196875,45.7082112 121.034212,45.0272304 C121.034212,45.0272304 121.047254,45.3852304 121.061516,45.4520359 C120.860852,46.6561659 119.964987,47.6274019 118.779397,47.9261539 C117.530135,47.9943551 116.278003,47.8620233 115.070739,47.5342036 C114.824666,47.4946265 114.574199,47.5720754 114.393621,47.7435808 C114.213043,47.9150862 114.123087,48.1609568 114.150431,48.4082735 C114.217949,48.8662822 114.586121,49.2213789 115.046969,49.2729736 C116.12204,49.5559451 117.228655,49.7019922 118.340452,49.7076357 C120.787059,49.6893281 122.775475,47.7319835 122.828142,45.290072 L122.887639,37.6316473 C122.843496,37.1574535 122.452351,36.7903991 121.975522,36.7757086 L121.975486,36.7757086 Z M118.107755,44.3538206 C116.481354,44.33948 115.174316,43.0120752 115.187892,41.3884588 C115.201468,39.7648424 116.530519,38.4594031 118.156933,38.4721671 C119.783347,38.4849311 121.091675,39.8110684 121.079679,41.4346972 C121.073461,42.2152535 120.756832,42.9613616 120.19947,43.5088281 C119.642108,44.0562945 118.889687,44.3602559 118.107791,44.3538206 L118.107755,44.3538206 Z" id="Shape"></path>
            </g>
        </g>
    </g>
</svg>