<svg width="170px" height="40px" viewBox="0 0 170 40" version="1.1" xmlns="http://www.w3.org/2000/svg" xmlns:xlink="http://www.w3.org/1999/xlink">
    <g id="pages" stroke="none" stroke-width="1" fill="none" fill-rule="evenodd">
        <g id="products" transform="translate(-1049.000000, -662.000000)" fill-rule="nonzero" fill="#000000">
            <g id="nescafe" transform="translate(1049.000000, 662.000000)">
                <path d="M143.829844,1.77777778 C143.587349,2.02082031 143.303022,2.10120164 142.339962,2.10120164 L23.340241,2.10120164 L23.340241,2.31607909 C23.340241,2.31607909 25.0650706,3.29521137 25.0650706,10.5273092 L25.1943378,25.0174556 C23.2886588,21.6347968 13.9681635,6.80666979 11.2588851,3.62306565 C10.2747511,2.45057521 9.16103446,2.10120164 7.78783865,2.10120164 L0.0135243746,2.10120164 L1.63919561e-16,2.31607909 C0.379940587,2.53412102 1.9528569,3.42179597 1.9528569,11.3991611 L1.9528569,29.7093153 C1.9528569,37.9987119 0,38.9031595 0,38.9031595 L0,39.1110744 L7.27108161,39.1110744 C8.18822303,39.1110744 8.49928354,38.6294198 8.49928354,37.9645341 L8.36215265,15.371704 C10.5914731,18.7271466 21.9154645,36.5784318 21.9154645,36.5784318 C22.5168262,37.5211705 23.405347,39.1199347 25.2349116,39.1110744 L32.0990041,39.1110744 C32.0990041,39.1110744 31.6225066,37.4195855 31.6225066,31.9859409 C31.6225066,27.4953498 31.6225066,7.22819669 31.6225066,7.22819669 L137.264862,7.22819669 C138.851616,7.22819669 141.92448,6.25476065 144,1.88759007 L143.829844,1.77777778 Z" id="path240"></path>
                <path d="M55.8252812,31.8623158 C55.8252812,31.8623158 55.1101424,33.3598407 51.6278635,34.1512425 C48.742757,34.8098527 44.587427,34.2657836 44.587427,34.2657836 L44.587427,26.7180483 L50.6299219,26.7831859 C52.113125,26.8146539 52.1666892,27.5833979 52.1666892,27.5833979 L52.2770059,27.5833979 L53.1413563,22.0523994 L44.5871077,22.0860711 L44.5871077,16.218687 L50.7960334,16.3064807 C53.5376643,16.3694153 53.6492559,18.4188771 53.6492559,18.4188771 L53.7927294,18.4188771 L54.7460355,11.5555556 L34.6666667,11.5555556 L34.6666667,11.7534844 C36.574554,11.8400193 36.574554,18.3254194 36.574554,21.119711 L36.574554,35.8240409 C36.574554,38.12178 37.1395232,39.1111111 37.1395232,39.1111111 L54.220602,39.1111111 L56,31.9117193 L55.8252812,31.8623158 L55.8252812,31.8623158 Z" id="path242"></path>
                <path d="M106.135099,28.190716 L108.634968,19.2968133 L111.323706,28.190716 L106.135099,28.190716 L106.135099,28.190716 Z M122.566596,36.5682429 L113.993016,11.5555556 L104.653776,11.5555556 L104.653776,11.7648126 C105.720098,11.9482668 106.096559,12.8979484 105.583463,14.486415 L97.7777778,39.1111111 L104.999662,39.1111111 L104.999662,38.9647869 C104.603772,38.8681834 103.783645,38.3442535 103.972196,36.5927871 C104.115518,35.2909857 104.874493,32.6288583 104.874493,32.6288583 L112.656291,32.6288583 L113.60063,35.7450579 C114.516624,38.5733356 115.203936,39.110796 115.203936,39.110796 L124.444444,39.110796 L124.444444,38.9644739 C123.569218,38.8684985 122.968535,37.7331605 122.566596,36.5682429 L122.566596,36.5682429 Z" id="path244"></path>
                <path d="M134.084463,39.1111111 L134.084463,38.9647869 C134.084463,38.9647869 132.455778,38.7152526 132.455778,35.3989202 L132.455778,26.7180483 C133.112542,26.7202626 136.775116,26.7674519 138.157277,26.7831859 C139.630745,26.8146539 139.668842,27.5833979 139.668842,27.5833979 L139.783759,27.5833979 L140.642966,22.0523994 L132.455463,22.0860711 L132.455463,16.218687 L138.307773,16.3064807 C141.031799,16.3694153 141.143254,18.4188771 141.143254,18.4188771 L141.286192,18.4188771 L142.222222,11.5555556 L122.666667,11.5555556 L122.666667,11.7534844 C124.544077,11.8400193 124.544077,18.3254194 124.544077,21.119711 L124.544077,35.8240409 C124.544077,38.12178 125.099777,39.1111111 125.099777,39.1111111 L134.084463,39.1111111 L134.084463,39.1111111 Z" id="path246"></path>
                <path d="M158.603226,6.76734458 C161.256968,5.27590873 161.89158,2.57367349 161.761991,0.0687086566 L161.559982,0 C161.559982,0 160.425432,1.08437528 155.714126,3.25312594 C151.035534,5.41332596 144.888889,7.62360716 144.888889,7.62360716 L144.888889,7.82332034 C144.888889,7.82332034 155.292003,8.63835773 158.603226,6.76734458 Z" id="path248"></path>
                <path d="M164.275061,31.8623158 C164.275061,31.8623158 163.55925,33.3598407 160.084504,34.1512425 C157.189043,34.8098527 153.045379,34.2657836 153.045379,34.2657836 L153.045379,26.7180483 L159.077139,26.7831859 C160.572558,26.8146539 160.614664,27.5833979 160.614664,27.5833979 L160.722802,27.5833979 L161.590132,22.0523994 L153.045379,22.0860711 L153.045379,16.218687 L159.233443,16.3064807 C161.992057,16.3694153 162.111678,18.4188771 162.111678,18.4188771 L162.245016,18.4188771 L163.198792,11.5555556 L143.111111,11.5555556 L143.111111,11.7534844 C145.015474,11.8400193 145.015474,18.3254194 145.015474,21.119711 L145.015474,35.8240409 C145.015474,38.12178 145.579766,39.1111111 145.579766,39.1111111 L162.694152,39.1111111 L164.444444,31.9117193 L164.275061,31.8623158 L164.275061,31.8623158 Z" id="path250"></path>
                <path d="M66.9098567,15.2239281 C65.5757209,15.2239281 63.4445125,15.9513754 63.4445125,17.6921427 C63.4445125,19.180762 64.6001431,19.9031663 65.4139504,20.3015604 C66.7725688,20.9637641 69.032078,22.047055 69.8570426,22.4612096 C74.7150955,24.9114574 75.5555556,28.5326192 75.5555556,30.3364229 C75.5555556,38.8445299 68.019313,40 64.0122567,40 C61.2510116,40 57.8178978,38.7228693 56,37.0341068 L57.5411539,30.2261096 L57.7270945,30.2733864 C57.7270945,30.2733864 58.9338605,35.327064 64.2747443,35.327064 C67.2519903,35.327064 68.2914082,33.6739196 68.2914082,32.3091682 C68.2914082,30.8656186 67.2352555,30.0392032 65.8933719,29.2802386 C64.4684349,28.4762023 62.5042643,27.5933677 61.2001886,26.9201322 C59.5595569,26.0732292 56.5655761,23.9293413 56.5655761,19.7805592 C56.5655761,12.7531922 62.5873176,10.6666667 66.9662594,10.6666667 C70.8921221,10.6666667 73.2848891,12.0292119 74.352199,12.979495 L72.5219069,19.2132262 L72.3582765,19.1804468 C72.2606565,18.1696481 70.6166174,15.2239281 66.9098567,15.2239281 L66.9098567,15.2239281 Z" id="path252"></path>
                <path d="M91.9287682,15.3067074 C89.8389312,15.3067074 85.0597726,16.8370678 85.0597726,24.368526 C85.0597726,32.7730337 90.0451718,35.0030327 93.4093463,35.0030327 C96.6886916,35.0030327 97.7738174,32.9966657 97.9359098,32.7168093 L98.1273276,32.7821935 C96.6253059,38.3297116 94.3629705,40 89.7405424,40 C84.7970852,40 77.3333333,35.8763968 77.3333333,25.5106909 C77.3333333,16.7028258 82.9046574,10.6666667 91.862229,10.6666667 C96.1566936,10.6666667 99.0330184,12.4756191 99.5555556,13.3941514 L97.3408399,19.2483728 L97.2146981,19.2291042 C96.5622361,16.685768 93.998109,15.3067063 91.9287682,15.3067063 L91.9287682,15.3067074 Z" id="path254"></path>
                <path d="M167.115309,40 C165.629144,40 164.444444,38.8188565 164.444444,37.3370376 C164.444444,35.8595973 165.621088,34.6666667 167.115309,34.6666667 C168.595093,34.6666667 169.777778,35.8595973 169.777778,37.3370376 C169.777778,38.8188565 168.595093,40 167.115309,40 L167.115309,39.5791255 C168.338613,39.5791255 169.34472,38.5925919 169.34472,37.3370376 C169.34472,36.0737376 168.314779,35.1138058 167.115309,35.1138058 C165.897708,35.1138058 164.87616,36.0737376 164.87616,37.3370376 C164.87616,38.5925919 165.897708,39.5791255 167.115309,39.5791255 L167.115309,40 Z" id="path256"></path>
                <path d="M166.595591,38.2222222 L166.222222,38.2222222 L166.222222,35.5555556 L167.168183,35.5555556 C167.698903,35.5555556 167.993332,35.720333 167.993332,36.2649129 C167.993332,36.8163684 167.652498,36.9509422 167.369271,36.9509422 L168,38.2222222 L167.590359,38.2222222 L167.008166,36.9895208 L166.595591,36.9895208 L166.595591,36.600451 L167.167916,36.600451 C167.422342,36.600451 167.629029,36.5642661 167.629029,36.2649129 C167.629029,35.9957633 167.490081,35.9401394 167.167916,35.9401394 L166.595591,35.9401394 L166.595591,38.2222222 Z" id="path258"></path>
            </g>
        </g>
    </g>
</svg>