<svg width="178px" height="40px" viewBox="0 0 178 40" version="1.1" xmlns="http://www.w3.org/2000/svg" xmlns:xlink="http://www.w3.org/1999/xlink">
    <g id="pages" stroke="none" stroke-width="1" fill="none" fill-rule="evenodd">
        <g id="products" transform="translate(-819.000000, -662.000000)" fill-rule="nonzero" fill="#000000">
            <g id="sberbank" transform="translate(819.000000, 662.000000)">
                <path d="M56.4312113,19.9353239 C56.4312113,14.0582535 59.8428169,10.2370704 65.9567324,10.2370704 C68.6974648,10.2370704 70.331493,10.7642817 71.4910423,11.3176338 L70.6741408,13.4785352 C69.1983099,13.004169 68.1178592,12.6614085 66.0096901,12.6614085 C62.2671549,12.6356056 59.3302535,14.6908169 59.3302535,19.6718873 C59.3302535,24.7581972 62.3727324,26.9716056 66.5101972,26.9716056 C68.2759437,26.9716056 69.619831,26.7080563 70.8584789,26.3125634 L71.5175211,28.5265352 C70.1206761,29.0538592 68.6448451,29.4489014 66.0623099,29.4489014 C59.7110986,29.4490141 56.4312113,25.6541972 56.4312113,19.9353239" id="Shape"></path>
                <path d="M73.3429859,21.0946479 C73.3429859,18.1434366 73.8962254,13.5051268 75.5566197,11.9500845 C77.0060845,10.5797183 80.88,9.65735211 85.3867042,8.81430986 L85.8345915,11.2910423 C81.8288451,11.9764507 78.2709859,12.6090141 77.4014648,13.452169 C76.6371831,14.1899718 76.2945352,15.8766197 76.136338,17.1417465 C77.3486197,16.4831549 79.0090141,15.8505915 81.0380845,15.8505915 C84.4904789,15.8505915 86.6779718,17.5631549 86.6779718,21.9381408 C86.6779718,27.0768451 83.7000563,29.3695775 79.7205634,29.3695775 C75.7674366,29.3695775 73.3429859,26.8928451 73.3429859,21.0946479 M83.9107606,22.0433803 C83.9107606,19.7506479 82.9357746,17.9852394 80.3267606,17.9852394 C78.6663662,17.9852394 77.3486197,18.5649577 76.0572394,19.224 C76.0310986,19.6983662 76.0046197,20.3833239 76.0046197,20.8576901 C76.0046197,25.1533521 77.296,27.1562817 79.9313803,27.1562817 C83.0410141,27.1562817 83.9107606,24.5206761 83.9107606,22.0433803" id="Shape"></path>
                <path d="M88.939831,22.2015775 C88.939831,16.5091831 91.8387606,14.3746479 95.4489014,14.3746479 C99.4811268,14.3746479 101.167887,16.9311549 101.167887,21.6219718 L101.167887,22.5971831 L91.7067042,22.5971831 C91.7331831,26.392 93.8939718,27.1562817 96.4241127,27.1562817 C97.7944789,27.1562817 98.9543662,26.9452394 100.377127,26.5237183 L100.851493,28.6582535 C99.5869296,29.1327324 97.8732394,29.4490141 96.0021408,29.4490141 C91.7065915,29.4490141 88.939831,27.7623662 88.939831,22.2015775 L88.939831,22.2015775 Z M98.3218028,20.6731268 C98.3218028,18.1169577 97.3993239,16.4567887 95.2912676,16.4567887 C93.3935775,16.4567887 91.9703662,17.8536338 91.7858028,20.6731268 L98.3218028,20.6731268 Z" id="Shape"></path>
                <path d="M103.94231,14.743662 L106.683042,14.743662 L106.683042,15.8766197 C107.921577,15.0070986 109.054535,14.4010141 110.820507,14.4010141 C114.220282,14.4010141 116.53938,16.7730704 116.53938,21.5690141 C116.53938,27.4460845 113.060394,29.4225352 109.186817,29.4225352 C108.290817,29.4225352 107.315606,29.2907042 106.683042,29.211493 L106.683042,34.9301408 L103.94231,34.9301408 L103.94231,14.743662 Z M113.745803,21.7007324 C113.745803,19.0917183 112.823324,16.7465915 110.056338,16.7465915 C108.554254,16.7465915 107.420845,17.4315493 106.683042,17.8270423 L106.683042,26.9452394 C107.02569,26.9980845 108.158648,27.2091268 109.133859,27.2091268 C112.427831,27.2091268 113.745803,24.915831 113.745803,21.7007324 L113.745803,21.7007324 Z" id="Shape"></path>
                <path d="M118.91831,21.0946479 C118.91831,18.1434366 119.471549,13.5051268 121.131831,11.9500845 C122.581521,10.5797183 126.455662,9.65735211 130.961803,8.81430986 L131.410141,11.2910423 C127.404394,11.9764507 123.845972,12.6090141 122.976451,13.452169 C122.212732,14.1899718 121.870085,15.8766197 121.711324,17.1417465 C122.923493,16.4831549 124.584225,15.8505915 126.61307,15.8505915 C130.065803,15.8505915 132.253183,17.5631549 132.253183,21.9381408 C132.253183,27.0768451 129.275606,29.3695775 125.295662,29.3695775 C121.342873,29.3695775 118.91831,26.8928451 118.91831,21.0946479 M129.486085,22.0433803 C129.486085,19.7506479 128.510873,17.9852394 125.90231,17.9852394 C124.241577,17.9852394 122.923493,18.5649577 121.632563,19.224 C121.606648,19.6983662 121.580169,20.3833239 121.580169,20.8576901 C121.580169,25.1533521 122.871211,27.1562817 125.506704,27.1562817 C128.616676,27.1562817 129.486085,24.5206761 129.486085,22.0433803" id="Shape"></path>
                <path d="M134.026028,25.2585915 C134.026028,21.6218592 137.241239,20.8839437 139.745127,20.8575775 L142.880901,20.8046197 L142.880901,19.2496901 C142.880901,17.2732394 141.879549,16.7464789 139.771493,16.7464789 C138.243042,16.7464789 136.977803,17.0098028 135.739155,17.4314366 L135.159549,15.3496338 C136.503437,14.795831 138.110648,14.3744225 140.218817,14.3744225 C143.671437,14.3744225 145.569014,15.5865915 145.569014,18.5118873 L145.569014,26.0226479 C145.569014,26.9186479 146.332732,27.1032113 147.071099,27.1295775 L146.85262,29.2377465 C146.66862,29.264 146.491493,29.2907042 146.306817,29.2907042 C144.830648,29.2907042 143.381521,28.8427042 143.118085,27.5510986 C142.222197,28.2366197 140.746028,29.3695775 138.453408,29.3695775 C135.792,29.3696901 134.026028,27.9204507 134.026028,25.2585915 M142.880901,25.8911549 L142.880901,22.5707042 L139.823775,22.7025352 C137.847324,22.7553803 136.714479,23.5983099 136.714479,25.0740282 C136.714479,26.5237183 137.768,27.1827606 139.165296,27.1827606 C140.456451,27.1827606 141.853183,26.5500845 142.880901,25.8911549" id="Shape"></path>
                <polygon id="Shape" points="149.424338 14.743662 152.190986 14.743662 152.190986 20.8310986 158.963944 20.8310986 158.963944 14.743662 161.731042 14.743662 161.731042 29.1327324 158.963944 29.1327324 158.963944 23.0187042 152.190986 23.0187042 152.190986 29.1327324 149.424338 29.1327324"></polygon>
                <path d="M165.123268,14.743662 L167.890592,14.743662 L167.890592,29.1327324 L165.123268,29.1327324 L165.123268,14.743662 Z M172.088338,26.6554366 L167.996394,21.7535775 L173.722141,14.743662 L176.832,14.743662 L170.973859,21.5426479 L173.82738,24.7052394 C175.092507,26.1544789 176.252282,26.9980845 177.411718,27.3143662 L176.937239,29.3695775 C175.593352,29.2909296 173.985465,28.9745352 172.088338,26.6554366 L172.088338,26.6554366 Z" id="Shape"></path>
                <path d="M41.5391549,19.1470423 C41.5391549,30.6138592 32.2410141,39.9134648 20.7696901,39.9134648 C9.29971831,39.9134648 0,30.6138592 0,19.1470423 C0,18.6789859 0.0192676056,18.2175775 0.0485633803,17.7601127 L12.6232113,24.9934648 L39.2587042,9.67211268 C40.7162817,12.5129014 41.5391549,15.7326197 41.5391549,19.1470423 L41.5391549,19.1470423 Z M12.6232113,19.7667606 L0.915943662,13.0339155 C0.686309859,13.7802817 0.498816901,14.5425352 0.354028169,15.3239437 L12.6232113,22.3803944 L38.1152676,7.71876056 C37.6944225,7.08484507 37.2420282,6.47211268 36.7567324,5.88574648 L12.6232113,19.7667606 Z M35.1752113,4.18557746 C34.5976338,3.62974648 33.9882817,3.1068169 33.351662,2.6211831 L12.6232113,14.5425352 L2.72833803,8.85047887 C2.35492958,9.50467606 2.01543662,10.1812958 1.7124507,10.8806761 L12.6232113,17.1529014 L35.1752113,4.18557746 Z M12.6232113,11.9303662 L31.2547606,1.21633803 C30.4757183,0.760450704 29.6668169,0.353577465 28.827493,0 L12.6232113,9.31853521 L5.40788732,5.1684507 C4.89307042,5.73295775 4.41092958,6.32991549 3.96011268,6.94738028 L12.6232113,11.9303662 Z" id="Shape"></path>
            </g>
        </g>
    </g>
</svg>