<svg width="64px" height="36px" viewBox="0 0 64 36" version="1.1" xmlns="http://www.w3.org/2000/svg" xmlns:xlink="http://www.w3.org/1999/xlink">
    <g id="pages" stroke="none" stroke-width="1" fill="none" fill-rule="evenodd">
        <g id="products" transform="translate(-702.000000, -666.000000)" fill-rule="nonzero" fill="#000000">
            <g id="vk" transform="translate(702.000000, 666.000000)">
                <path d="M62.8702712,32.5119514 C62.7937366,32.3472914 62.7223888,32.2107077 62.6561127,32.1012796 C61.5595013,30.1296179 59.4639063,27.7095426 56.3705955,24.8403634 L56.3052414,24.7746605 L56.2725068,24.7424419 L56.2394263,24.7094179 L56.2062306,24.7094179 C54.8023283,23.3733826 53.9133054,22.4750596 53.5410062,22.0151395 C52.8598024,21.1390244 52.7071943,20.2522081 53.0794935,19.353655 C53.3425235,18.6747636 54.3305572,17.241037 56.0412893,15.0505191 C56.9411469,13.8896147 57.6538175,12.9591883 58.180108,12.2582042 C61.975831,7.22059974 63.6214396,4.00150378 63.116588,2.59965055 L62.9205258,2.27205668 C62.7887803,2.07483297 62.4487547,1.89440895 61.9009101,1.72986408 C61.3517975,1.56566441 60.6499617,1.53850875 59.7941345,1.64793684 L50.3167568,1.71329452 C50.1632266,1.65898321 49.9439965,1.66404613 49.658375,1.72986408 C49.3730993,1.79568202 49.2304038,1.82870606 49.2304038,1.82870606 L49.0654626,1.9109785 L48.9345239,2.00982049 C48.8247936,2.07517817 48.7041134,2.19012944 48.5723679,2.35444418 C48.4413139,2.51818358 48.3316989,2.71034437 48.2440991,2.92931562 C47.2122655,5.57940852 46.0391195,8.04332408 44.7224713,10.3209472 C43.9106746,11.6790753 43.1651541,12.8560889 42.484296,13.8526784 C41.8043601,14.8489228 41.233924,15.582931 40.7735639,16.0534373 C40.3125122,16.5244038 39.8964131,16.9017063 39.5227308,17.1867257 C39.1496247,17.4718601 38.8648101,17.5923345 38.6675952,17.5482641 C38.4699193,17.5041937 38.2837697,17.4604685 38.1075327,17.4167433 C37.8005876,17.2195196 37.5536944,16.9512999 37.3675448,16.6118542 C37.1805884,16.2724085 37.0547213,15.8451672 36.9889061,15.3304755 C36.9234368,14.8154385 36.8847085,14.3724331 36.8736432,13.9999634 C36.8633848,13.6279539 36.8681106,13.1017555 36.8903564,12.4228641 C36.9131784,11.7436275 36.9234368,11.2840525 36.9234368,11.0431036 C36.9234368,10.2107137 36.9396889,9.30732784 36.9723083,8.33271593 C37.005504,7.35810402 37.0323603,6.5858938 37.0548365,6.01700581 C37.0771975,5.44754249 37.0875712,4.84505513 37.0875712,4.20988893 C37.0875712,3.57472272 37.0488429,3.07660053 36.9723083,2.71506209 C36.8966958,2.35398391 36.7806261,2.00349184 36.6276722,1.66370093 C36.4737962,1.32425523 36.2485725,1.06167383 35.9530383,0.875266362 C35.6569279,0.689089022 35.2887782,0.54134384 34.8506638,0.431570551 C33.6877763,0.168874094 32.2069937,0.0267671628 30.4076243,0.00467442531 C26.327202,-0.0390507843 23.7053165,0.223990871 22.5425442,0.793454194 C22.0818383,1.03405791 21.6649324,1.36280245 21.2921721,1.77865221 C20.8971661,2.26066511 20.8420705,2.52370676 21.1272309,2.56697171 C22.4437639,2.76385022 23.3757798,3.23481675 23.924316,3.97941105 L24.1219919,4.37397353 C24.2757526,4.65864766 24.4292828,5.16263823 24.5829283,5.88525485 C24.7363432,6.60787148 24.8353541,7.40723735 24.8789235,8.2828922 C24.9884232,9.88196915 24.9884232,11.2507983 24.8789235,12.3894949 C24.7690779,13.5286516 24.6653413,14.4154679 24.5663304,15.0506341 C24.4673196,15.6858003 24.319322,16.2004921 24.1219919,16.5945943 C23.924316,16.9888116 23.792801,17.2297605 23.7268706,17.3172109 C23.6610555,17.4046613 23.6061904,17.4597781 23.562621,17.4814106 C23.2774605,17.5904935 22.9808891,17.6460705 22.6739439,17.6460705 C22.3665377,17.6460705 21.9937775,17.492572 21.5550868,17.1858051 C21.1165114,16.8790383 20.6613382,16.4576653 20.1895671,15.9209959 C19.717796,15.3842114 19.1857424,14.634094 18.5931758,13.6705284 C18.0010702,12.7069629 17.3867188,11.5681513 16.7504676,10.2540937 L16.2240618,9.30111426 C15.8949862,8.68804079 15.4454609,7.79535612 14.8750247,6.6238657 C14.3042428,5.45191501 13.799737,4.31828142 13.3611616,3.22319505 C13.1858467,2.76327489 12.922471,2.41312801 12.5714954,2.17217909 L12.4067847,2.07333711 C12.2972849,1.98588669 12.121509,1.89302815 11.880379,1.7940711 C11.6389032,1.69522911 11.3869384,1.62434824 11.1234474,1.5807381 L2.106545,1.64609578 C1.18513327,1.64609578 0.559947231,1.85448092 0.230756352,2.27067588 L0.0990108423,2.46755439 C0.0331957189,2.57721261 0,2.75234358 0,2.99340757 C0,3.23435649 0.0658151233,3.53007698 0.197560633,3.88022386 C1.5138631,6.96860445 2.94531322,9.94709669 4.49191098,12.8161608 C6.03850875,15.685225 7.38247431,17.9963325 8.52300084,19.747412 C9.66375789,21.4997573 10.8265302,23.1536059 12.0113176,24.7081521 C13.1961051,26.2632737 13.980354,27.2598633 14.3640642,27.6976907 C14.7482355,28.1363236 15.0499938,28.4642627 15.2693391,28.6832339 L16.0922011,29.4715535 C16.6187221,29.9972916 17.3919057,30.6269346 18.4120977,31.3604825 C19.4325203,32.0944907 20.5622121,32.8171073 21.8017495,33.529483 C23.0415174,34.2407081 24.4838022,34.8211027 26.1294108,35.2699765 C27.7747889,35.7193106 29.3762518,35.8996195 30.9340301,35.8126294 L34.7185725,35.8126294 C35.4861083,35.7464662 36.0676097,35.5055173 36.4628462,35.0896676 L36.5937849,34.9250076 C36.6818457,34.7942923 36.7642587,34.5912002 36.8403323,34.3179176 C36.9173279,34.0441748 36.9555952,33.7425859 36.9555952,33.4145318 C36.9331189,32.4729439 37.0049277,31.6243296 37.1690621,30.868804 C37.3330812,30.1135086 37.5200376,29.5440452 37.7291246,29.1605291 C37.9380962,28.7773582 38.1739242,28.4540218 38.4363778,28.1919007 C38.6994078,27.9292042 38.8868253,27.7700675 38.9967861,27.7152959 C39.1060553,27.6601791 39.1933094,27.6227825 39.2591245,27.6003446 C39.7856455,27.4252136 40.4052989,27.5948214 41.1190068,28.1099734 C41.8321385,28.6246652 42.5010092,29.2601766 43.1266563,30.015472 C43.7519576,30.7714579 44.5032412,31.6196119 45.3806225,32.5611998 C46.2585801,33.5031328 47.0262311,34.2033115 47.6841518,34.6639221 L48.3420726,35.0581394 C48.7814548,35.321181 49.3518909,35.56213 50.0540726,35.7811012 C50.7549864,35.9999574 51.3691072,36.054729 51.896435,35.9453009 L60.3206555,35.8141252 C61.1538911,35.8141252 61.802245,35.6763908 62.262144,35.4031083 C62.7229652,35.1293654 62.9967146,34.8277766 63.085006,34.4997224 C63.1730668,34.1713231 63.1777926,33.7987383 63.1017191,33.3821981 C63.0236861,32.9666936 62.9468057,32.6761511 62.8702712,32.5119514 Z" id="Shape"></path>
            </g>
        </g>
    </g>
</svg>